<mxfile host="app.diagrams.net" agent="Mozilla/5.0 (Windows NT 10.0; Win64; x64) AppleWebKit/537.36 (KHTML, like Gecko) Chrome/129.0.0.0 Safari/537.36" version="24.7.17">
  <diagram name="第 1 页" id="lUHJqOYcLx_I8CIas6FB">
    <mxGraphModel dx="1434" dy="780" grid="1" gridSize="10" guides="1" tooltips="1" connect="1" arrows="1" fold="1" page="1" pageScale="1" pageWidth="827" pageHeight="1169" math="0" shadow="0">
      <root>
        <mxCell id="0" />
        <mxCell id="1" parent="0" />
        <mxCell id="XpDxkfP4jnby5Jq5ViRB-1" value="" style="shape=actor;whiteSpace=wrap;html=1;fillColor=#f5f5f5;strokeColor=#666666;fontColor=#333333;" vertex="1" parent="1">
          <mxGeometry x="40" y="320" width="30" height="40" as="geometry" />
        </mxCell>
        <mxCell id="XpDxkfP4jnby5Jq5ViRB-2" value="" style="html=1;shadow=0;dashed=0;align=center;verticalAlign=middle;shape=mxgraph.arrows2.arrow;dy=0.6;dx=40;notch=0;" vertex="1" parent="1">
          <mxGeometry x="80" y="335" width="160" height="10" as="geometry" />
        </mxCell>
        <mxCell id="XpDxkfP4jnby5Jq5ViRB-19" style="edgeStyle=orthogonalEdgeStyle;rounded=0;orthogonalLoop=1;jettySize=auto;html=1;exitX=1;exitY=0.25;exitDx=0;exitDy=0;entryX=0;entryY=0.5;entryDx=0;entryDy=0;" edge="1" parent="1" source="XpDxkfP4jnby5Jq5ViRB-36" target="XpDxkfP4jnby5Jq5ViRB-13">
          <mxGeometry relative="1" as="geometry" />
        </mxCell>
        <mxCell id="XpDxkfP4jnby5Jq5ViRB-34" style="edgeStyle=orthogonalEdgeStyle;rounded=0;orthogonalLoop=1;jettySize=auto;html=1;exitX=1;exitY=0.5;exitDx=0;exitDy=0;entryX=0;entryY=0.5;entryDx=0;entryDy=0;" edge="1" parent="1" source="XpDxkfP4jnby5Jq5ViRB-37" target="XpDxkfP4jnby5Jq5ViRB-23">
          <mxGeometry relative="1" as="geometry" />
        </mxCell>
        <mxCell id="XpDxkfP4jnby5Jq5ViRB-35" style="edgeStyle=orthogonalEdgeStyle;rounded=0;orthogonalLoop=1;jettySize=auto;html=1;exitX=1;exitY=0.5;exitDx=0;exitDy=0;entryX=0;entryY=0.5;entryDx=0;entryDy=0;" edge="1" parent="1" source="XpDxkfP4jnby5Jq5ViRB-41" target="XpDxkfP4jnby5Jq5ViRB-59">
          <mxGeometry relative="1" as="geometry">
            <mxPoint x="490" y="410" as="targetPoint" />
          </mxGeometry>
        </mxCell>
        <mxCell id="XpDxkfP4jnby5Jq5ViRB-3" value="" style="rounded=1;whiteSpace=wrap;html=1;fillColor=#bac8d3;strokeColor=#23445d;" vertex="1" parent="1">
          <mxGeometry x="240" y="240" width="120" height="200" as="geometry" />
        </mxCell>
        <mxCell id="XpDxkfP4jnby5Jq5ViRB-5" value="Master1" style="ellipse;whiteSpace=wrap;html=1;fillColor=#dae8fc;strokeColor=#6c8ebf;" vertex="1" parent="1">
          <mxGeometry x="250" y="260" width="100" height="50" as="geometry" />
        </mxCell>
        <mxCell id="XpDxkfP4jnby5Jq5ViRB-6" value="Master2" style="ellipse;whiteSpace=wrap;html=1;fillColor=#dae8fc;strokeColor=#6c8ebf;" vertex="1" parent="1">
          <mxGeometry x="250" y="370" width="100" height="50" as="geometry" />
        </mxCell>
        <mxCell id="XpDxkfP4jnby5Jq5ViRB-7" value="" style="shape=doubleArrow;direction=south;whiteSpace=wrap;html=1;" vertex="1" parent="1">
          <mxGeometry x="295" y="310" width="10" height="60" as="geometry" />
        </mxCell>
        <mxCell id="XpDxkfP4jnby5Jq5ViRB-8" value="https://bastion.yanfeng.com" style="text;html=1;align=center;verticalAlign=middle;whiteSpace=wrap;rounded=0;" vertex="1" parent="1">
          <mxGeometry x="130" y="305" width="60" height="30" as="geometry" />
        </mxCell>
        <mxCell id="XpDxkfP4jnby5Jq5ViRB-10" value="XDC" style="text;html=1;align=center;verticalAlign=middle;whiteSpace=wrap;rounded=0;" vertex="1" parent="1">
          <mxGeometry x="250" y="325" width="60" height="30" as="geometry" />
        </mxCell>
        <mxCell id="XpDxkfP4jnby5Jq5ViRB-13" value="" style="rounded=0;whiteSpace=wrap;html=1;fillColor=#f5f5f5;fontColor=#333333;strokeColor=#666666;" vertex="1" parent="1">
          <mxGeometry x="520" y="80" width="120" height="90" as="geometry" />
        </mxCell>
        <mxCell id="XpDxkfP4jnby5Jq5ViRB-23" value="" style="rounded=0;whiteSpace=wrap;html=1;fillColor=#f5f5f5;fontColor=#333333;strokeColor=#666666;" vertex="1" parent="1">
          <mxGeometry x="520" y="200" width="120" height="90" as="geometry" />
        </mxCell>
        <mxCell id="XpDxkfP4jnby5Jq5ViRB-24" value="Worker1" style="rounded=0;whiteSpace=wrap;html=1;fillColor=#d5e8d4;strokeColor=#82b366;" vertex="1" parent="1">
          <mxGeometry x="530" y="210" width="100" height="30" as="geometry" />
        </mxCell>
        <mxCell id="XpDxkfP4jnby5Jq5ViRB-25" value="Worker2" style="rounded=0;whiteSpace=wrap;html=1;fillColor=#d5e8d4;strokeColor=#82b366;" vertex="1" parent="1">
          <mxGeometry x="530" y="250" width="100" height="30" as="geometry" />
        </mxCell>
        <mxCell id="XpDxkfP4jnby5Jq5ViRB-27" value="Worker1" style="rounded=0;whiteSpace=wrap;html=1;fillColor=#d5e8d4;strokeColor=#82b366;" vertex="1" parent="1">
          <mxGeometry x="530" y="90" width="100" height="30" as="geometry" />
        </mxCell>
        <mxCell id="XpDxkfP4jnby5Jq5ViRB-28" value="Worker2" style="rounded=0;whiteSpace=wrap;html=1;fillColor=#d5e8d4;strokeColor=#82b366;" vertex="1" parent="1">
          <mxGeometry x="530" y="130" width="100" height="30" as="geometry" />
        </mxCell>
        <mxCell id="XpDxkfP4jnby5Jq5ViRB-39" value="" style="edgeStyle=orthogonalEdgeStyle;rounded=0;orthogonalLoop=1;jettySize=auto;html=1;exitX=1;exitY=0.25;exitDx=0;exitDy=0;entryX=0;entryY=0.5;entryDx=0;entryDy=0;" edge="1" parent="1" source="XpDxkfP4jnby5Jq5ViRB-3" target="XpDxkfP4jnby5Jq5ViRB-37">
          <mxGeometry relative="1" as="geometry">
            <mxPoint x="360" y="340" as="sourcePoint" />
            <mxPoint x="520" y="310" as="targetPoint" />
          </mxGeometry>
        </mxCell>
        <mxCell id="XpDxkfP4jnby5Jq5ViRB-37" value="FDC" style="text;html=1;align=center;verticalAlign=middle;whiteSpace=wrap;rounded=0;" vertex="1" parent="1">
          <mxGeometry x="414" y="275" width="60" height="30" as="geometry" />
        </mxCell>
        <mxCell id="XpDxkfP4jnby5Jq5ViRB-40" value="" style="edgeStyle=orthogonalEdgeStyle;rounded=0;orthogonalLoop=1;jettySize=auto;html=1;exitX=1.008;exitY=0.11;exitDx=0;exitDy=0;entryX=0;entryY=0.5;entryDx=0;entryDy=0;exitPerimeter=0;" edge="1" parent="1" source="XpDxkfP4jnby5Jq5ViRB-3" target="XpDxkfP4jnby5Jq5ViRB-36">
          <mxGeometry relative="1" as="geometry">
            <mxPoint x="360" y="290" as="sourcePoint" />
            <mxPoint x="520" y="150" as="targetPoint" />
          </mxGeometry>
        </mxCell>
        <mxCell id="XpDxkfP4jnby5Jq5ViRB-36" value="XDC" style="text;html=1;align=center;verticalAlign=middle;whiteSpace=wrap;rounded=0;" vertex="1" parent="1">
          <mxGeometry x="414" y="200" width="60" height="30" as="geometry" />
        </mxCell>
        <mxCell id="XpDxkfP4jnby5Jq5ViRB-42" value="" style="edgeStyle=orthogonalEdgeStyle;rounded=0;orthogonalLoop=1;jettySize=auto;html=1;exitX=1.008;exitY=0.41;exitDx=0;exitDy=0;entryX=0;entryY=0.5;entryDx=0;entryDy=0;exitPerimeter=0;" edge="1" parent="1" source="XpDxkfP4jnby5Jq5ViRB-3" target="XpDxkfP4jnby5Jq5ViRB-41">
          <mxGeometry relative="1" as="geometry">
            <mxPoint x="360" y="390" as="sourcePoint" />
            <mxPoint x="520" y="470" as="targetPoint" />
          </mxGeometry>
        </mxCell>
        <mxCell id="XpDxkfP4jnby5Jq5ViRB-41" value="ADC" style="text;html=1;align=center;verticalAlign=middle;whiteSpace=wrap;rounded=0;" vertex="1" parent="1">
          <mxGeometry x="414" y="352" width="60" height="31" as="geometry" />
        </mxCell>
        <mxCell id="XpDxkfP4jnby5Jq5ViRB-48" style="edgeStyle=orthogonalEdgeStyle;rounded=0;orthogonalLoop=1;jettySize=auto;html=1;entryX=0;entryY=0.5;entryDx=0;entryDy=0;exitX=1;exitY=0.5;exitDx=0;exitDy=0;dashed=1;" edge="1" parent="1" source="XpDxkfP4jnby5Jq5ViRB-49" target="XpDxkfP4jnby5Jq5ViRB-54">
          <mxGeometry relative="1" as="geometry">
            <mxPoint x="450" y="560" as="sourcePoint" />
            <mxPoint x="511" y="565" as="targetPoint" />
          </mxGeometry>
        </mxCell>
        <mxCell id="XpDxkfP4jnby5Jq5ViRB-51" value="" style="edgeStyle=orthogonalEdgeStyle;rounded=0;orthogonalLoop=1;jettySize=auto;html=1;entryX=0;entryY=0.5;entryDx=0;entryDy=0;dashed=1;exitX=1;exitY=0.75;exitDx=0;exitDy=0;" edge="1" parent="1" source="XpDxkfP4jnby5Jq5ViRB-3" target="XpDxkfP4jnby5Jq5ViRB-49">
          <mxGeometry relative="1" as="geometry">
            <mxPoint x="380" y="390" as="sourcePoint" />
            <mxPoint x="520" y="630" as="targetPoint" />
          </mxGeometry>
        </mxCell>
        <mxCell id="XpDxkfP4jnby5Jq5ViRB-49" value="Plant1" style="text;html=1;align=center;verticalAlign=middle;whiteSpace=wrap;rounded=0;" vertex="1" parent="1">
          <mxGeometry x="414" y="400" width="60" height="26" as="geometry" />
        </mxCell>
        <mxCell id="XpDxkfP4jnby5Jq5ViRB-52" value="Worker1" style="rounded=0;whiteSpace=wrap;html=1;strokeColor=#333333;" vertex="1" parent="1">
          <mxGeometry x="520" y="440" width="100" height="50" as="geometry" />
        </mxCell>
        <mxCell id="XpDxkfP4jnby5Jq5ViRB-54" value="" style="rounded=0;whiteSpace=wrap;html=1;dashed=1;strokeColor=#666666;fillColor=#f5f5f5;fontColor=#333333;" vertex="1" parent="1">
          <mxGeometry x="520" y="440" width="120" height="90" as="geometry" />
        </mxCell>
        <mxCell id="XpDxkfP4jnby5Jq5ViRB-55" value="Worker1" style="rounded=0;whiteSpace=wrap;html=1;dashed=1;strokeColor=#82b366;fillColor=#d5e8d4;" vertex="1" parent="1">
          <mxGeometry x="530" y="450" width="100" height="30" as="geometry" />
        </mxCell>
        <mxCell id="XpDxkfP4jnby5Jq5ViRB-56" value="Worker2" style="rounded=0;whiteSpace=wrap;html=1;dashed=1;strokeColor=#82b366;fillColor=#d5e8d4;" vertex="1" parent="1">
          <mxGeometry x="530" y="490" width="100" height="30" as="geometry" />
        </mxCell>
        <mxCell id="XpDxkfP4jnby5Jq5ViRB-59" value="" style="rounded=0;whiteSpace=wrap;html=1;fillColor=#f5f5f5;fontColor=#333333;strokeColor=#666666;" vertex="1" parent="1">
          <mxGeometry x="520" y="320" width="120" height="95" as="geometry" />
        </mxCell>
        <mxCell id="XpDxkfP4jnby5Jq5ViRB-60" value="Worker1" style="rounded=0;whiteSpace=wrap;html=1;fillColor=#d5e8d4;strokeColor=#82b366;" vertex="1" parent="1">
          <mxGeometry x="530" y="330" width="100" height="30" as="geometry" />
        </mxCell>
        <mxCell id="XpDxkfP4jnby5Jq5ViRB-61" value="Worker2" style="rounded=0;whiteSpace=wrap;html=1;fillColor=#d5e8d4;strokeColor=#82b366;" vertex="1" parent="1">
          <mxGeometry x="530" y="370" width="100" height="30" as="geometry" />
        </mxCell>
        <mxCell id="XpDxkfP4jnby5Jq5ViRB-65" value="Worker1" style="rounded=0;whiteSpace=wrap;html=1;strokeColor=#333333;" vertex="1" parent="1">
          <mxGeometry x="520" y="550" width="100" height="50" as="geometry" />
        </mxCell>
        <mxCell id="XpDxkfP4jnby5Jq5ViRB-66" value="" style="rounded=0;whiteSpace=wrap;html=1;dashed=1;strokeColor=#666666;fillColor=#f5f5f5;fontColor=#333333;" vertex="1" parent="1">
          <mxGeometry x="520" y="550" width="120" height="90" as="geometry" />
        </mxCell>
        <mxCell id="XpDxkfP4jnby5Jq5ViRB-67" value="Worker1" style="rounded=0;whiteSpace=wrap;html=1;dashed=1;strokeColor=#82b366;fillColor=#d5e8d4;" vertex="1" parent="1">
          <mxGeometry x="530" y="560" width="100" height="30" as="geometry" />
        </mxCell>
        <mxCell id="XpDxkfP4jnby5Jq5ViRB-68" value="Worker2" style="rounded=0;whiteSpace=wrap;html=1;dashed=1;strokeColor=#82b366;fillColor=#d5e8d4;" vertex="1" parent="1">
          <mxGeometry x="530" y="600" width="100" height="30" as="geometry" />
        </mxCell>
        <mxCell id="XpDxkfP4jnby5Jq5ViRB-69" value="" style="edgeStyle=orthogonalEdgeStyle;rounded=0;orthogonalLoop=1;jettySize=auto;html=1;dashed=1;exitX=1;exitY=1;exitDx=0;exitDy=0;entryX=0;entryY=0.5;entryDx=0;entryDy=0;" edge="1" parent="1" source="XpDxkfP4jnby5Jq5ViRB-3" target="XpDxkfP4jnby5Jq5ViRB-70">
          <mxGeometry relative="1" as="geometry">
            <mxPoint x="370" y="430" as="sourcePoint" />
            <mxPoint x="390" y="490" as="targetPoint" />
            <Array as="points">
              <mxPoint x="360" y="533" />
            </Array>
          </mxGeometry>
        </mxCell>
        <mxCell id="XpDxkfP4jnby5Jq5ViRB-70" value="Plant2" style="text;html=1;align=center;verticalAlign=middle;whiteSpace=wrap;rounded=0;" vertex="1" parent="1">
          <mxGeometry x="414" y="520" width="60" height="26" as="geometry" />
        </mxCell>
        <mxCell id="XpDxkfP4jnby5Jq5ViRB-72" style="edgeStyle=orthogonalEdgeStyle;rounded=0;orthogonalLoop=1;jettySize=auto;html=1;entryX=0;entryY=0.5;entryDx=0;entryDy=0;exitX=0.5;exitY=1;exitDx=0;exitDy=0;dashed=1;" edge="1" parent="1" source="XpDxkfP4jnby5Jq5ViRB-70" target="XpDxkfP4jnby5Jq5ViRB-66">
          <mxGeometry relative="1" as="geometry">
            <mxPoint x="484" y="423" as="sourcePoint" />
            <mxPoint x="530" y="495" as="targetPoint" />
          </mxGeometry>
        </mxCell>
        <mxCell id="XpDxkfP4jnby5Jq5ViRB-73" value="&lt;p style=&quot;line-height: 100%;&quot;&gt;&lt;/p&gt;&lt;div style=&quot;font-size: 14px;&quot;&gt;&lt;span style=&quot;background-color: initial;&quot;&gt;Master软件单价￥198000;&lt;/span&gt;&lt;/div&gt;&lt;font face=&quot;Helvetica&quot; style=&quot;&quot;&gt;&lt;div style=&quot;font-size: 14px;&quot;&gt;&lt;span style=&quot;background-color: initial;&quot;&gt;Worker软件单价￥50000;&lt;/span&gt;&lt;/div&gt;&lt;span style=&quot;font-size: 14px;&quot;&gt;&lt;div style=&quot;&quot;&gt;&lt;span style=&quot;background-color: initial;&quot;&gt;终端服务器&lt;/span&gt;&lt;span style=&quot;background-color: initial;&quot;&gt;License单价￥20000每100台服务器。&lt;/span&gt;&lt;/div&gt;&lt;/span&gt;&lt;div style=&quot;&quot;&gt;&lt;span style=&quot;font-size: 14px;&quot;&gt;&lt;br&gt;&lt;/span&gt;&lt;/div&gt;&lt;span style=&quot;font-size: 14px; background-color: initial;&quot;&gt;&lt;div style=&quot;&quot;&gt;&lt;span style=&quot;background-color: initial;&quot;&gt;工厂使用堡垒机方案：&lt;/span&gt;&lt;/div&gt;&lt;/span&gt;&lt;span style=&quot;font-size: 14px; background-color: initial;&quot;&gt;&lt;div style=&quot;&quot;&gt;&lt;font style=&quot;background-color: initial; font-size: 12px;&quot; face=&quot;Helvetica&quot;&gt;&lt;span style=&quot;font-size: 14px; background-color: initial;&quot;&gt;1. 工厂自带Worker，需要投入Worker服务器、&lt;/span&gt;&lt;span style=&quot;font-size: 14px; background-color: initial;&quot;&gt;Worker软件和&lt;/span&gt;&lt;/font&gt;&lt;span style=&quot;background-color: initial;&quot;&gt;&lt;font face=&quot;Helvetica&quot;&gt;终端服务器&lt;/font&gt;&lt;/span&gt;&lt;span style=&quot;background-color: initial;&quot;&gt;&lt;font face=&quot;Helvetica&quot;&gt;&lt;span style=&quot;background-color: initial;&quot;&gt;License费用。&lt;/span&gt;&lt;/font&gt;&lt;/span&gt;&lt;/div&gt;&lt;div style=&quot;&quot;&gt;&lt;font style=&quot;background-color: initial;&quot; face=&quot;Helvetica&quot;&gt;&lt;span style=&quot;background-color: initial;&quot;&gt;2. 工厂不带Worker，连接距离工厂最近的数据中心的Worker，需要投入&lt;/span&gt;&lt;/font&gt;&lt;span style=&quot;background-color: initial;&quot;&gt;&lt;font face=&quot;Helvetica&quot;&gt;终端服务器&lt;/font&gt;&lt;/span&gt;&lt;span style=&quot;background-color: initial;&quot;&gt;&lt;font face=&quot;Helvetica&quot;&gt;&lt;span style=&quot;background-color: initial;&quot;&gt;License费用。&lt;/span&gt;&lt;/font&gt;&lt;/span&gt;&lt;/div&gt;&lt;/span&gt;&lt;/font&gt;&lt;p style=&quot;line-height: 100%;&quot;&gt;&lt;/p&gt;&lt;div style=&quot;&quot;&gt;&lt;span style=&quot;font-size: 14px;&quot;&gt;&lt;br&gt;&lt;/span&gt;&lt;/div&gt;&lt;font face=&quot;Helvetica&quot; style=&quot;font-size: 14px;&quot;&gt;&lt;div style=&quot;&quot;&gt;&lt;span style=&quot;background-color: initial;&quot;&gt;自带Worker优点：&lt;/span&gt;&lt;/div&gt;&lt;span style=&quot;background-color: initial;&quot;&gt;&lt;div style=&quot;&quot;&gt;&lt;span style=&quot;background-color: initial;&quot;&gt;1. 工厂通过堡垒机访问终端服务器，网络流量无需从数据中心绕一圈，操作&lt;/span&gt;&lt;span style=&quot;background-color: initial;&quot;&gt;终端&lt;/span&gt;&lt;span style=&quot;background-color: initial;&quot;&gt;服务器几乎无卡顿，掉线情况，体验更好。&lt;/span&gt;&lt;/div&gt;&lt;/span&gt;&lt;/font&gt;&lt;font face=&quot;Helvetica&quot; style=&quot;font-size: 14px;&quot;&gt;&lt;span style=&quot;background-color: initial;&quot;&gt;&lt;div style=&quot;&quot;&gt;&lt;span style=&quot;background-color: initial;&quot;&gt;2. 只要和Master通信正常，访问&lt;/span&gt;&lt;span style=&quot;background-color: initial;&quot;&gt;终端&lt;/span&gt;&lt;span style=&quot;background-color: initial;&quot;&gt;服务器不受其它数据中心或者工厂的意外情况的干扰。&lt;/span&gt;&lt;/div&gt;&lt;/span&gt;&lt;/font&gt;&lt;p&gt;&lt;/p&gt;&lt;p style=&quot;line-height: 100%;&quot;&gt;&lt;/p&gt;&lt;div style=&quot;&quot;&gt;&lt;font face=&quot;rnTIwr-ZT3x2AIq3CJ2m&quot;&gt;&lt;span style=&quot;font-size: 14px;&quot;&gt;&lt;br&gt;&lt;/span&gt;&lt;/font&gt;&lt;/div&gt;&lt;font style=&quot;font-size: 14px;&quot;&gt;&lt;div style=&quot;&quot;&gt;&lt;span style=&quot;font-family: rnTIwr-ZT3x2AIq3CJ2m; background-color: initial;&quot;&gt;自带Worker缺点：&lt;/span&gt;&lt;span style=&quot;font-family: rnTIwr-ZT3x2AIq3CJ2m; background-color: initial;&quot;&gt;要投入更多的费用。&lt;/span&gt;&lt;/div&gt;&lt;/font&gt;&lt;p&gt;&lt;/p&gt;&lt;p style=&quot;line-height: 100%; font-size: 14px;&quot;&gt;&lt;b style=&quot;background-color: initial;&quot;&gt;&lt;br&gt;&lt;/b&gt;&lt;/p&gt;" style="text;html=1;align=left;verticalAlign=middle;whiteSpace=wrap;rounded=0;" vertex="1" parent="1">
          <mxGeometry x="10" y="560" width="420" height="150" as="geometry" />
        </mxCell>
        <mxCell id="XpDxkfP4jnby5Jq5ViRB-78" value="" style="rounded=0;whiteSpace=wrap;html=1;fillColor=#f5f5f5;fontColor=#333333;strokeColor=#666666;" vertex="1" parent="1">
          <mxGeometry x="680" y="80" width="120" height="90" as="geometry" />
        </mxCell>
        <mxCell id="XpDxkfP4jnby5Jq5ViRB-79" value="" style="whiteSpace=wrap;html=1;aspect=fixed;fillColor=#d0cee2;strokeColor=#56517e;" vertex="1" parent="1">
          <mxGeometry x="690" y="90" width="30" height="30" as="geometry" />
        </mxCell>
        <mxCell id="XpDxkfP4jnby5Jq5ViRB-80" value="" style="ellipse;whiteSpace=wrap;html=1;aspect=fixed;fillColor=#647687;fontColor=#ffffff;strokeColor=#314354;" vertex="1" parent="1">
          <mxGeometry x="695" y="95" width="20" height="20" as="geometry" />
        </mxCell>
        <mxCell id="XpDxkfP4jnby5Jq5ViRB-83" value="" style="whiteSpace=wrap;html=1;aspect=fixed;fillColor=#d0cee2;strokeColor=#56517e;" vertex="1" parent="1">
          <mxGeometry x="725" y="90" width="30" height="30" as="geometry" />
        </mxCell>
        <mxCell id="XpDxkfP4jnby5Jq5ViRB-84" value="" style="ellipse;whiteSpace=wrap;html=1;aspect=fixed;fillColor=#647687;fontColor=#ffffff;strokeColor=#314354;" vertex="1" parent="1">
          <mxGeometry x="730" y="95" width="20" height="20" as="geometry" />
        </mxCell>
        <mxCell id="XpDxkfP4jnby5Jq5ViRB-85" value="" style="whiteSpace=wrap;html=1;aspect=fixed;fillColor=#d0cee2;strokeColor=#56517e;" vertex="1" parent="1">
          <mxGeometry x="760" y="90" width="30" height="30" as="geometry" />
        </mxCell>
        <mxCell id="XpDxkfP4jnby5Jq5ViRB-86" value="" style="ellipse;whiteSpace=wrap;html=1;aspect=fixed;fillColor=#647687;fontColor=#ffffff;strokeColor=#314354;" vertex="1" parent="1">
          <mxGeometry x="765" y="95" width="20" height="20" as="geometry" />
        </mxCell>
        <mxCell id="XpDxkfP4jnby5Jq5ViRB-88" value="" style="whiteSpace=wrap;html=1;aspect=fixed;fillColor=#d0cee2;strokeColor=#56517e;" vertex="1" parent="1">
          <mxGeometry x="690" y="130" width="30" height="30" as="geometry" />
        </mxCell>
        <mxCell id="XpDxkfP4jnby5Jq5ViRB-89" value="" style="ellipse;whiteSpace=wrap;html=1;aspect=fixed;fillColor=#647687;fontColor=#ffffff;strokeColor=#314354;" vertex="1" parent="1">
          <mxGeometry x="695" y="135" width="20" height="20" as="geometry" />
        </mxCell>
        <mxCell id="XpDxkfP4jnby5Jq5ViRB-90" value="" style="whiteSpace=wrap;html=1;aspect=fixed;fillColor=#d0cee2;strokeColor=#56517e;" vertex="1" parent="1">
          <mxGeometry x="725" y="130" width="30" height="30" as="geometry" />
        </mxCell>
        <mxCell id="XpDxkfP4jnby5Jq5ViRB-91" value="" style="ellipse;whiteSpace=wrap;html=1;aspect=fixed;fillColor=#647687;fontColor=#ffffff;strokeColor=#314354;" vertex="1" parent="1">
          <mxGeometry x="730" y="135" width="20" height="20" as="geometry" />
        </mxCell>
        <mxCell id="XpDxkfP4jnby5Jq5ViRB-92" value="" style="whiteSpace=wrap;html=1;aspect=fixed;fillColor=#d0cee2;strokeColor=#56517e;" vertex="1" parent="1">
          <mxGeometry x="760" y="130" width="30" height="30" as="geometry" />
        </mxCell>
        <mxCell id="XpDxkfP4jnby5Jq5ViRB-93" value="" style="ellipse;whiteSpace=wrap;html=1;aspect=fixed;fillColor=#647687;fontColor=#ffffff;strokeColor=#314354;" vertex="1" parent="1">
          <mxGeometry x="765" y="135" width="20" height="20" as="geometry" />
        </mxCell>
        <mxCell id="XpDxkfP4jnby5Jq5ViRB-120" value="" style="rounded=0;whiteSpace=wrap;html=1;fillColor=#f5f5f5;fontColor=#333333;strokeColor=#666666;" vertex="1" parent="1">
          <mxGeometry x="680" y="200" width="120" height="90" as="geometry" />
        </mxCell>
        <mxCell id="XpDxkfP4jnby5Jq5ViRB-121" value="" style="whiteSpace=wrap;html=1;aspect=fixed;fillColor=#d0cee2;strokeColor=#56517e;" vertex="1" parent="1">
          <mxGeometry x="690" y="210" width="30" height="30" as="geometry" />
        </mxCell>
        <mxCell id="XpDxkfP4jnby5Jq5ViRB-122" value="" style="ellipse;whiteSpace=wrap;html=1;aspect=fixed;fillColor=#647687;fontColor=#ffffff;strokeColor=#314354;" vertex="1" parent="1">
          <mxGeometry x="695" y="215" width="20" height="20" as="geometry" />
        </mxCell>
        <mxCell id="XpDxkfP4jnby5Jq5ViRB-123" value="" style="whiteSpace=wrap;html=1;aspect=fixed;fillColor=#d0cee2;strokeColor=#56517e;" vertex="1" parent="1">
          <mxGeometry x="725" y="210" width="30" height="30" as="geometry" />
        </mxCell>
        <mxCell id="XpDxkfP4jnby5Jq5ViRB-124" value="" style="ellipse;whiteSpace=wrap;html=1;aspect=fixed;fillColor=#647687;fontColor=#ffffff;strokeColor=#314354;" vertex="1" parent="1">
          <mxGeometry x="730" y="215" width="20" height="20" as="geometry" />
        </mxCell>
        <mxCell id="XpDxkfP4jnby5Jq5ViRB-125" value="" style="whiteSpace=wrap;html=1;aspect=fixed;fillColor=#d0cee2;strokeColor=#56517e;" vertex="1" parent="1">
          <mxGeometry x="760" y="210" width="30" height="30" as="geometry" />
        </mxCell>
        <mxCell id="XpDxkfP4jnby5Jq5ViRB-126" value="" style="ellipse;whiteSpace=wrap;html=1;aspect=fixed;fillColor=#647687;fontColor=#ffffff;strokeColor=#314354;" vertex="1" parent="1">
          <mxGeometry x="765" y="215" width="20" height="20" as="geometry" />
        </mxCell>
        <mxCell id="XpDxkfP4jnby5Jq5ViRB-127" value="" style="whiteSpace=wrap;html=1;aspect=fixed;fillColor=#d0cee2;strokeColor=#56517e;" vertex="1" parent="1">
          <mxGeometry x="690" y="250" width="30" height="30" as="geometry" />
        </mxCell>
        <mxCell id="XpDxkfP4jnby5Jq5ViRB-128" value="" style="ellipse;whiteSpace=wrap;html=1;aspect=fixed;fillColor=#647687;fontColor=#ffffff;strokeColor=#314354;" vertex="1" parent="1">
          <mxGeometry x="695" y="255" width="20" height="20" as="geometry" />
        </mxCell>
        <mxCell id="XpDxkfP4jnby5Jq5ViRB-129" value="" style="whiteSpace=wrap;html=1;aspect=fixed;fillColor=#d0cee2;strokeColor=#56517e;" vertex="1" parent="1">
          <mxGeometry x="725" y="250" width="30" height="30" as="geometry" />
        </mxCell>
        <mxCell id="XpDxkfP4jnby5Jq5ViRB-130" value="" style="ellipse;whiteSpace=wrap;html=1;aspect=fixed;fillColor=#647687;fontColor=#ffffff;strokeColor=#314354;" vertex="1" parent="1">
          <mxGeometry x="730" y="255" width="20" height="20" as="geometry" />
        </mxCell>
        <mxCell id="XpDxkfP4jnby5Jq5ViRB-131" value="" style="whiteSpace=wrap;html=1;aspect=fixed;fillColor=#d0cee2;strokeColor=#56517e;" vertex="1" parent="1">
          <mxGeometry x="760" y="250" width="30" height="30" as="geometry" />
        </mxCell>
        <mxCell id="XpDxkfP4jnby5Jq5ViRB-132" value="" style="ellipse;whiteSpace=wrap;html=1;aspect=fixed;fillColor=#647687;fontColor=#ffffff;strokeColor=#314354;" vertex="1" parent="1">
          <mxGeometry x="765" y="255" width="20" height="20" as="geometry" />
        </mxCell>
        <mxCell id="XpDxkfP4jnby5Jq5ViRB-133" value="" style="rounded=0;whiteSpace=wrap;html=1;fillColor=#f5f5f5;fontColor=#333333;strokeColor=#666666;" vertex="1" parent="1">
          <mxGeometry x="680" y="320" width="120" height="94" as="geometry" />
        </mxCell>
        <mxCell id="XpDxkfP4jnby5Jq5ViRB-134" value="" style="whiteSpace=wrap;html=1;aspect=fixed;fillColor=#d0cee2;strokeColor=#56517e;" vertex="1" parent="1">
          <mxGeometry x="690" y="330" width="30" height="34" as="geometry" />
        </mxCell>
        <mxCell id="XpDxkfP4jnby5Jq5ViRB-135" value="" style="ellipse;whiteSpace=wrap;html=1;aspect=fixed;fillColor=#647687;fontColor=#ffffff;strokeColor=#314354;" vertex="1" parent="1">
          <mxGeometry x="695" y="335" width="20" height="24" as="geometry" />
        </mxCell>
        <mxCell id="XpDxkfP4jnby5Jq5ViRB-136" value="" style="whiteSpace=wrap;html=1;aspect=fixed;fillColor=#d0cee2;strokeColor=#56517e;" vertex="1" parent="1">
          <mxGeometry x="725" y="330" width="30" height="34" as="geometry" />
        </mxCell>
        <mxCell id="XpDxkfP4jnby5Jq5ViRB-137" value="" style="ellipse;whiteSpace=wrap;html=1;aspect=fixed;fillColor=#647687;fontColor=#ffffff;strokeColor=#314354;" vertex="1" parent="1">
          <mxGeometry x="730" y="335" width="20" height="24" as="geometry" />
        </mxCell>
        <mxCell id="XpDxkfP4jnby5Jq5ViRB-138" value="" style="whiteSpace=wrap;html=1;aspect=fixed;fillColor=#d0cee2;strokeColor=#56517e;" vertex="1" parent="1">
          <mxGeometry x="760" y="330" width="30" height="34" as="geometry" />
        </mxCell>
        <mxCell id="XpDxkfP4jnby5Jq5ViRB-139" value="" style="ellipse;whiteSpace=wrap;html=1;aspect=fixed;fillColor=#647687;fontColor=#ffffff;strokeColor=#314354;" vertex="1" parent="1">
          <mxGeometry x="765" y="335" width="20" height="24" as="geometry" />
        </mxCell>
        <mxCell id="XpDxkfP4jnby5Jq5ViRB-140" value="" style="whiteSpace=wrap;html=1;aspect=fixed;fillColor=#d0cee2;strokeColor=#56517e;" vertex="1" parent="1">
          <mxGeometry x="690" y="370" width="30" height="34" as="geometry" />
        </mxCell>
        <mxCell id="XpDxkfP4jnby5Jq5ViRB-141" value="" style="ellipse;whiteSpace=wrap;html=1;aspect=fixed;fillColor=#647687;fontColor=#ffffff;strokeColor=#314354;" vertex="1" parent="1">
          <mxGeometry x="695" y="375" width="20" height="24" as="geometry" />
        </mxCell>
        <mxCell id="XpDxkfP4jnby5Jq5ViRB-142" value="" style="whiteSpace=wrap;html=1;aspect=fixed;fillColor=#d0cee2;strokeColor=#56517e;" vertex="1" parent="1">
          <mxGeometry x="725" y="370" width="30" height="34" as="geometry" />
        </mxCell>
        <mxCell id="XpDxkfP4jnby5Jq5ViRB-143" value="" style="ellipse;whiteSpace=wrap;html=1;aspect=fixed;fillColor=#647687;fontColor=#ffffff;strokeColor=#314354;" vertex="1" parent="1">
          <mxGeometry x="730" y="375" width="20" height="24" as="geometry" />
        </mxCell>
        <mxCell id="XpDxkfP4jnby5Jq5ViRB-144" value="" style="whiteSpace=wrap;html=1;aspect=fixed;fillColor=#d0cee2;strokeColor=#56517e;" vertex="1" parent="1">
          <mxGeometry x="760" y="370" width="30" height="34" as="geometry" />
        </mxCell>
        <mxCell id="XpDxkfP4jnby5Jq5ViRB-145" value="" style="ellipse;whiteSpace=wrap;html=1;aspect=fixed;fillColor=#647687;fontColor=#ffffff;strokeColor=#314354;" vertex="1" parent="1">
          <mxGeometry x="765" y="375" width="20" height="24" as="geometry" />
        </mxCell>
        <mxCell id="XpDxkfP4jnby5Jq5ViRB-146" value="" style="rounded=0;whiteSpace=wrap;html=1;fillColor=#f5f5f5;fontColor=#333333;strokeColor=#666666;dashed=1;" vertex="1" parent="1">
          <mxGeometry x="680" y="440" width="120" height="90" as="geometry" />
        </mxCell>
        <mxCell id="XpDxkfP4jnby5Jq5ViRB-147" value="" style="whiteSpace=wrap;html=1;aspect=fixed;fillColor=#d0cee2;strokeColor=#56517e;dashed=1;" vertex="1" parent="1">
          <mxGeometry x="690" y="450" width="30" height="30" as="geometry" />
        </mxCell>
        <mxCell id="XpDxkfP4jnby5Jq5ViRB-148" value="" style="ellipse;whiteSpace=wrap;html=1;aspect=fixed;fillColor=#647687;fontColor=#ffffff;strokeColor=#314354;dashed=1;" vertex="1" parent="1">
          <mxGeometry x="695" y="455" width="20" height="20" as="geometry" />
        </mxCell>
        <mxCell id="XpDxkfP4jnby5Jq5ViRB-149" value="" style="whiteSpace=wrap;html=1;aspect=fixed;fillColor=#d0cee2;strokeColor=#56517e;dashed=1;" vertex="1" parent="1">
          <mxGeometry x="725" y="450" width="30" height="30" as="geometry" />
        </mxCell>
        <mxCell id="XpDxkfP4jnby5Jq5ViRB-150" value="" style="ellipse;whiteSpace=wrap;html=1;aspect=fixed;fillColor=#647687;fontColor=#ffffff;strokeColor=#314354;dashed=1;" vertex="1" parent="1">
          <mxGeometry x="730" y="455" width="20" height="20" as="geometry" />
        </mxCell>
        <mxCell id="XpDxkfP4jnby5Jq5ViRB-151" value="" style="whiteSpace=wrap;html=1;aspect=fixed;fillColor=#d0cee2;strokeColor=#56517e;dashed=1;" vertex="1" parent="1">
          <mxGeometry x="760" y="450" width="30" height="30" as="geometry" />
        </mxCell>
        <mxCell id="XpDxkfP4jnby5Jq5ViRB-152" value="" style="ellipse;whiteSpace=wrap;html=1;aspect=fixed;fillColor=#647687;fontColor=#ffffff;strokeColor=#314354;dashed=1;" vertex="1" parent="1">
          <mxGeometry x="765" y="455" width="20" height="20" as="geometry" />
        </mxCell>
        <mxCell id="XpDxkfP4jnby5Jq5ViRB-153" value="" style="whiteSpace=wrap;html=1;aspect=fixed;fillColor=#d0cee2;strokeColor=#56517e;dashed=1;" vertex="1" parent="1">
          <mxGeometry x="690" y="490" width="30" height="30" as="geometry" />
        </mxCell>
        <mxCell id="XpDxkfP4jnby5Jq5ViRB-154" value="" style="ellipse;whiteSpace=wrap;html=1;aspect=fixed;fillColor=#647687;fontColor=#ffffff;strokeColor=#314354;dashed=1;" vertex="1" parent="1">
          <mxGeometry x="695" y="495" width="20" height="20" as="geometry" />
        </mxCell>
        <mxCell id="XpDxkfP4jnby5Jq5ViRB-155" value="" style="whiteSpace=wrap;html=1;aspect=fixed;fillColor=#d0cee2;strokeColor=#56517e;dashed=1;" vertex="1" parent="1">
          <mxGeometry x="725" y="490" width="30" height="30" as="geometry" />
        </mxCell>
        <mxCell id="XpDxkfP4jnby5Jq5ViRB-156" value="" style="ellipse;whiteSpace=wrap;html=1;aspect=fixed;fillColor=#647687;fontColor=#ffffff;strokeColor=#314354;dashed=1;" vertex="1" parent="1">
          <mxGeometry x="730" y="495" width="20" height="20" as="geometry" />
        </mxCell>
        <mxCell id="XpDxkfP4jnby5Jq5ViRB-157" value="" style="whiteSpace=wrap;html=1;aspect=fixed;fillColor=#d0cee2;strokeColor=#56517e;dashed=1;" vertex="1" parent="1">
          <mxGeometry x="760" y="490" width="30" height="30" as="geometry" />
        </mxCell>
        <mxCell id="XpDxkfP4jnby5Jq5ViRB-158" value="" style="ellipse;whiteSpace=wrap;html=1;aspect=fixed;fillColor=#647687;fontColor=#ffffff;strokeColor=#314354;dashed=1;" vertex="1" parent="1">
          <mxGeometry x="765" y="495" width="20" height="20" as="geometry" />
        </mxCell>
        <mxCell id="XpDxkfP4jnby5Jq5ViRB-159" value="" style="rounded=0;whiteSpace=wrap;html=1;fillColor=#f5f5f5;fontColor=#333333;strokeColor=#666666;dashed=1;" vertex="1" parent="1">
          <mxGeometry x="680" y="550" width="120" height="90" as="geometry" />
        </mxCell>
        <mxCell id="XpDxkfP4jnby5Jq5ViRB-160" value="" style="whiteSpace=wrap;html=1;aspect=fixed;fillColor=#d0cee2;strokeColor=#56517e;dashed=1;" vertex="1" parent="1">
          <mxGeometry x="690" y="560" width="30" height="30" as="geometry" />
        </mxCell>
        <mxCell id="XpDxkfP4jnby5Jq5ViRB-161" value="" style="ellipse;whiteSpace=wrap;html=1;aspect=fixed;fillColor=#647687;fontColor=#ffffff;strokeColor=#314354;dashed=1;" vertex="1" parent="1">
          <mxGeometry x="695" y="565" width="20" height="20" as="geometry" />
        </mxCell>
        <mxCell id="XpDxkfP4jnby5Jq5ViRB-162" value="" style="whiteSpace=wrap;html=1;aspect=fixed;fillColor=#d0cee2;strokeColor=#56517e;dashed=1;" vertex="1" parent="1">
          <mxGeometry x="725" y="560" width="30" height="30" as="geometry" />
        </mxCell>
        <mxCell id="XpDxkfP4jnby5Jq5ViRB-163" value="" style="ellipse;whiteSpace=wrap;html=1;aspect=fixed;fillColor=#647687;fontColor=#ffffff;strokeColor=#314354;dashed=1;" vertex="1" parent="1">
          <mxGeometry x="730" y="565" width="20" height="20" as="geometry" />
        </mxCell>
        <mxCell id="XpDxkfP4jnby5Jq5ViRB-164" value="" style="whiteSpace=wrap;html=1;aspect=fixed;fillColor=#d0cee2;strokeColor=#56517e;dashed=1;" vertex="1" parent="1">
          <mxGeometry x="760" y="560" width="30" height="30" as="geometry" />
        </mxCell>
        <mxCell id="XpDxkfP4jnby5Jq5ViRB-165" value="" style="ellipse;whiteSpace=wrap;html=1;aspect=fixed;fillColor=#647687;fontColor=#ffffff;strokeColor=#314354;dashed=1;" vertex="1" parent="1">
          <mxGeometry x="765" y="565" width="20" height="20" as="geometry" />
        </mxCell>
        <mxCell id="XpDxkfP4jnby5Jq5ViRB-166" value="" style="whiteSpace=wrap;html=1;aspect=fixed;fillColor=#d0cee2;strokeColor=#56517e;dashed=1;" vertex="1" parent="1">
          <mxGeometry x="690" y="600" width="30" height="30" as="geometry" />
        </mxCell>
        <mxCell id="XpDxkfP4jnby5Jq5ViRB-167" value="" style="ellipse;whiteSpace=wrap;html=1;aspect=fixed;fillColor=#647687;fontColor=#ffffff;strokeColor=#314354;dashed=1;" vertex="1" parent="1">
          <mxGeometry x="695" y="605" width="20" height="20" as="geometry" />
        </mxCell>
        <mxCell id="XpDxkfP4jnby5Jq5ViRB-168" value="" style="whiteSpace=wrap;html=1;aspect=fixed;fillColor=#d0cee2;strokeColor=#56517e;dashed=1;" vertex="1" parent="1">
          <mxGeometry x="725" y="600" width="30" height="30" as="geometry" />
        </mxCell>
        <mxCell id="XpDxkfP4jnby5Jq5ViRB-169" value="" style="ellipse;whiteSpace=wrap;html=1;aspect=fixed;fillColor=#647687;fontColor=#ffffff;strokeColor=#314354;dashed=1;" vertex="1" parent="1">
          <mxGeometry x="730" y="605" width="20" height="20" as="geometry" />
        </mxCell>
        <mxCell id="XpDxkfP4jnby5Jq5ViRB-170" value="" style="whiteSpace=wrap;html=1;aspect=fixed;fillColor=#d0cee2;strokeColor=#56517e;dashed=1;" vertex="1" parent="1">
          <mxGeometry x="760" y="600" width="30" height="30" as="geometry" />
        </mxCell>
        <mxCell id="XpDxkfP4jnby5Jq5ViRB-171" value="" style="ellipse;whiteSpace=wrap;html=1;aspect=fixed;fillColor=#647687;fontColor=#ffffff;strokeColor=#314354;dashed=1;" vertex="1" parent="1">
          <mxGeometry x="765" y="605" width="20" height="20" as="geometry" />
        </mxCell>
        <mxCell id="XpDxkfP4jnby5Jq5ViRB-172" value="" style="endArrow=classic;html=1;rounded=0;entryX=0;entryY=0.5;entryDx=0;entryDy=0;exitX=1;exitY=0.5;exitDx=0;exitDy=0;" edge="1" parent="1" source="XpDxkfP4jnby5Jq5ViRB-13" target="XpDxkfP4jnby5Jq5ViRB-78">
          <mxGeometry width="50" height="50" relative="1" as="geometry">
            <mxPoint x="390" y="370" as="sourcePoint" />
            <mxPoint x="440" y="320" as="targetPoint" />
          </mxGeometry>
        </mxCell>
        <mxCell id="XpDxkfP4jnby5Jq5ViRB-174" value="" style="endArrow=classic;html=1;rounded=0;entryX=0;entryY=0.5;entryDx=0;entryDy=0;exitX=1;exitY=0.5;exitDx=0;exitDy=0;" edge="1" parent="1" source="XpDxkfP4jnby5Jq5ViRB-23" target="XpDxkfP4jnby5Jq5ViRB-120">
          <mxGeometry width="50" height="50" relative="1" as="geometry">
            <mxPoint x="650" y="135" as="sourcePoint" />
            <mxPoint x="690" y="135" as="targetPoint" />
            <Array as="points" />
          </mxGeometry>
        </mxCell>
        <mxCell id="XpDxkfP4jnby5Jq5ViRB-176" style="edgeStyle=orthogonalEdgeStyle;rounded=0;orthogonalLoop=1;jettySize=auto;html=1;entryX=0;entryY=0.5;entryDx=0;entryDy=0;exitX=1;exitY=0.5;exitDx=0;exitDy=0;" edge="1" parent="1" source="XpDxkfP4jnby5Jq5ViRB-59" target="XpDxkfP4jnby5Jq5ViRB-133">
          <mxGeometry relative="1" as="geometry" />
        </mxCell>
        <mxCell id="XpDxkfP4jnby5Jq5ViRB-177" value="" style="endArrow=classic;html=1;rounded=0;entryX=0;entryY=0.5;entryDx=0;entryDy=0;exitX=1;exitY=0.5;exitDx=0;exitDy=0;" edge="1" parent="1" source="XpDxkfP4jnby5Jq5ViRB-54" target="XpDxkfP4jnby5Jq5ViRB-146">
          <mxGeometry width="50" height="50" relative="1" as="geometry">
            <mxPoint x="650" y="255" as="sourcePoint" />
            <mxPoint x="690" y="255" as="targetPoint" />
            <Array as="points" />
          </mxGeometry>
        </mxCell>
        <mxCell id="XpDxkfP4jnby5Jq5ViRB-178" value="" style="endArrow=classic;html=1;rounded=0;entryX=0;entryY=0.5;entryDx=0;entryDy=0;exitX=1;exitY=0.5;exitDx=0;exitDy=0;" edge="1" parent="1" source="XpDxkfP4jnby5Jq5ViRB-66" target="XpDxkfP4jnby5Jq5ViRB-159">
          <mxGeometry width="50" height="50" relative="1" as="geometry">
            <mxPoint x="670" y="630" as="sourcePoint" />
            <mxPoint x="690" y="495" as="targetPoint" />
            <Array as="points" />
          </mxGeometry>
        </mxCell>
        <mxCell id="XpDxkfP4jnby5Jq5ViRB-179" value="&lt;span style=&quot;font-size:10.5pt;font-family:等线;&lt;br/&gt;mso-bidi-font-family:宋体;mso-ansi-language:EN-US;mso-fareast-language:ZH-CN;&lt;br/&gt;mso-bidi-language:AR-SA&quot;&gt;&lt;b&gt;终端服务器&lt;/b&gt;&lt;/span&gt;" style="text;html=1;align=center;verticalAlign=middle;whiteSpace=wrap;rounded=0;" vertex="1" parent="1">
          <mxGeometry x="690" y="40" width="90" height="30" as="geometry" />
        </mxCell>
      </root>
    </mxGraphModel>
  </diagram>
</mxfile>
